<?xml version="1.0" standalone="yes"?>

<svg version="1.1" viewBox="0.0 0.0 100.0 719.0" fill="none" stroke="none" stroke-linecap="square" stroke-miterlimit="10" xmlns="http://www.w3.org/2000/svg" xmlns:xlink="http://www.w3.org/1999/xlink"><clipPath id="p.0"><path d="m0 0l100.0 0l0 719.0l-100.0 0l0 -719.0z" clip-rule="nonzero"></path></clipPath><g clip-path="url(#p.0)"><path fill="#000000" fill-opacity="0.0" d="m0 0l100.0 0l0 719.2756l-100.0 0z" fill-rule="nonzero"></path><path fill="#85b94f" d="m0.036745407 527.11365l0 168.9057l0 0c0 7.801697 6.3245354 14.126221 14.1262455 14.126221l18.304138 0l0 6.5428467l9.868828 -11.038818l-9.868828 -11.038818l0 6.5428467l-18.304138 0l0 0c-2.8355837 0 -5.1342783 -2.298706 -5.1342783 -5.1342773l0 -168.9057z" fill-rule="nonzero"></path><path fill="#85b94f" d="m0 7.603786l9.039371 0l0 526.26776l-9.039371 0z" fill-rule="nonzero"></path></g></svg>

