<?xml version="1.0" standalone="yes"?>

<svg version="1.1" preserveAspectRatio="none" viewBox="0.0 0.0 400.0 502.0" fill="none" stroke="none" stroke-linecap="square" stroke-miterlimit="10" xmlns="http://www.w3.org/2000/svg" xmlns:xlink="http://www.w3.org/1999/xlink"><clipPath id="p.0"><path d="m0 0l400.0 0l0 502.0l-400.0 0l0 -502.0z" clip-rule="nonzero"></path></clipPath><g clip-path="url(#p.0)"><path fill="#000000" fill-opacity="0.0" d="m0 0l400.17322 0l0 502.17584l-400.17322 0z" fill-rule="nonzero"></path><path fill="#ffffff" d="m397.81366 62.700783l-397.85828 0l0 324.40945l397.85828 0z" fill-rule="nonzero"></path><path stroke="#999999" stroke-width="2.0" stroke-linejoin="round" stroke-linecap="butt" stroke-dasharray="8.0,6.0" d="m397.81366 62.700783l-397.85828 0l0 324.40945l397.85828 0z" fill-rule="nonzero"></path><path fill="#ffffff" d="m397.81366 389.47458l-195.04605 109.38583l-202.81223 -109.38583z" fill-rule="nonzero"></path><path stroke="#999999" stroke-width="2.0" stroke-linejoin="round" stroke-linecap="butt" stroke-dasharray="8.0,6.0" d="m397.81366 389.47458l-195.04605 109.38583l-202.81223 -109.38583z" fill-rule="nonzero"></path><path fill="#ffffff" d="m-0.044619422 62.77379l200.56433 -59.716537l197.29395 59.716537z" fill-rule="nonzero"></path><path stroke="#b7b7b7" stroke-width="2.0" stroke-linejoin="round" stroke-linecap="butt" stroke-dasharray="8.0,6.0" d="m-0.044619422 62.77379l200.56433 -59.716537l197.29395 59.716537z" fill-rule="nonzero"></path><path fill="#ffffff" d="m5.3622046 61.035168l381.60626 0l0 5.826771l-381.60626 0z" fill-rule="nonzero"></path><path fill="#ffffff" d="m8.081365 385.85406l381.6063 0l0 5.826782l-381.6063 0z" fill-rule="nonzero"></path><path fill="#ffffff" d="m1.4225365 386.68872l8.125984 0l0 3.905487l-8.125984 0z" fill-rule="nonzero"></path><path fill="#ffffff" d="m150.25456 383.63095l8.125977 0l0 3.9055176l-8.125977 0z" fill-rule="nonzero"></path><path fill="#ffffff" d="m386.96848 386.68872l8.125977 0l0 3.905487l-8.125977 0z" fill-rule="nonzero"></path><path fill="#ffffff" d="m388.08017 385.5732l8.125977 0l0 3.9055176l-8.125977 0z" fill-rule="nonzero"></path><path fill="#ffffff" d="m387.46942 61.951176l8.125977 0l0 3.9055138l-8.125977 0z" fill-rule="nonzero"></path><path fill="#ffffff" d="m2.464567 61.95114l13.889765 0l0 2.8661423l-13.889765 0z" fill-rule="nonzero"></path></g></svg>

